<svg xmlns="http://www.w3.org/2000/svg" width="198.248" height="242.411" viewBox="0 0 198.248 242.411"><defs><style>.a{fill:#79c6e0;}.b{fill:#fff;}.c{fill:#fce0cd;}.d{fill:#d9d9d9;}.e{fill:#f2bea0;}.f{fill:#645d5c;}.g{fill:#5bb1c9;}</style></defs><path class="a" d="M28.88,207.152c3.575-3.294,7.449-6.749,11.535-8.258,0,0,.315-.1.816-.259a46.235,46.235,0,0,1-10.332-10.9c-1.254-1.826-4.95-10.626-4.576-12.8a47.363,47.363,0,0,1,1.639-16.423c2.805-9.02,7.546-19.041,17-26.785,4.629-3.783,9.237-6.994,14.653-8.738a51.865,51.865,0,0,0,17.323,8.451c10.676,2.708,25.772,2.325,35.482-.567a57.552,57.552,0,0,0,18.509-8.775c6.954,1.36,12.5,5.066,18.071,9.629,9.449,7.744,14.19,17.765,17,26.785a47.107,47.107,0,0,1,1.65,16.423c-.1,5.17-2.981,10.274-4.279,12.056a60.752,60.752,0,0,1-9.358,10.1c2.957.683,12.431,8.278,17.106,13.683l1.044.822a15.255,15.255,0,0,1,3.611-5,13.854,13.854,0,0,1,11.255-3.214,13.3,13.3,0,0,1,9.463,6.6,16,16,0,0,1,1.719,6.41c.357,4.724-1.353,9.264-3.88,13.391a25.466,25.466,0,0,1-20.85,11.918,9.425,9.425,0,0,1-7.49-3.9c-8.8,1.955-15.432,1.783-24.6.39,0,0-24.455-3.731-37.155-5.539a45.353,45.353,0,0,0-21.867,1.964c-20.371,8-31.794,9.137-53.589,6.56l-.757-.09a8.355,8.355,0,0,1-3.237.613,25.466,25.466,0,0,1-20.85-11.918C1.4,225.656-.31,221.116.047,216.392a16,16,0,0,1,1.719-6.41,13.3,13.3,0,0,1,9.463-6.6A13.854,13.854,0,0,1,22.484,206.6a14.489,14.489,0,0,1,2.943,3.7C26.543,209.317,27.7,208.244,28.88,207.152Z"/><path class="b" d="M60.446,147.108c-.115-5.409,1.357-10.52,2.122-13.623a38.489,38.489,0,0,1,2.508-6.931,52.271,52.271,0,0,0,11.857,4.884c10.676,2.708,25.772,2.325,35.482-.567a57.936,57.936,0,0,0,17.46-8.034,25.575,25.575,0,0,1,2.345,3.685c3.575,7.722,5.269,29.645-6.127,35.937-8.459,4.664-15.675,5.764-23.4,6.468a87.078,87.078,0,0,1-24.024-1.441C64.238,163.7,60.616,155.083,60.446,147.108Z"/><path class="c" d="M70.294,190.251a13.853,13.853,0,0,1,4.374-.294,5.017,5.017,0,0,1,4.22,3.34c.491,1.836-.882,4.086-2.782,4.064,3.207.835,4.937,4.681,4.292,7.932s-3.093,5.871-5.825,7.747a8.82,8.82,0,0,1-4.88,1.859,8.433,8.433,0,0,1-3.479-.938,20.279,20.279,0,0,1-9.531-9.351"/><path class="c" d="M124.786,189.768a13.876,13.876,0,0,0-4.336-.638,5.017,5.017,0,0,0-4.469,3c-.634,1.79.557,4.141,2.452,4.27-3.262.579-5.29,4.275-4.9,7.566s2.619,6.095,5.194,8.18a8.809,8.809,0,0,0,4.717,2.237,8.434,8.434,0,0,0,3.541-.659,20.282,20.282,0,0,0,10.236-8.567"/><path class="d" d="M88.242,152.886a14.779,14.779,0,0,1-6.457-2.379,8.4,8.4,0,0,1-.911-.779c-.166-.161-.328-.327-.484-.5-.077-.085-.151-.172-.227-.257-.284-.315.034.07-.115-.13a10.615,10.615,0,0,1-.776-1.2c-.106-.189-.2-.383-.3-.577-.048-.1-.092-.195-.138-.293-.165-.356.186.516-.049-.121a16.059,16.059,0,0,1-.725-2.674c-.026-.139-.047-.28-.067-.42,0,.034.048.4.017.112-.023-.211-.045-.421-.062-.632-.039-.49-.059-.98-.063-1.471a24.748,24.748,0,0,1,.14-2.763c.02-.2.044-.393.067-.59-.069.586.014-.088.035-.225q.1-.641.221-1.277c.274-1.424.644-2.824,1.026-4.221.815-2.984-3.814-4.257-4.629-1.277-2.042,7.472-3.282,17.105,3.542,22.62a18.058,18.058,0,0,0,8.681,3.682,2.476,2.476,0,0,0,2.952-1.676,2.418,2.418,0,0,0-1.676-2.952Z"/><path class="d" d="M117.562,131.657c.1.2.187.417.294.616.148.277-.158-.424-.048-.113.049.138.109.273.16.41.193.516.362,1.04.511,1.57.178.627.327,1.263.45,1.9q.1.51.174,1.026c-.038-.262-.01-.1.007.068.02.2.043.4.06.6q.093,1.047.083,2.1c0,.378-.02.757-.046,1.135-.012.169-.026.338-.043.507-.011.112-.07.574-.023.25a15.182,15.182,0,0,1-.47,2.14,9.252,9.252,0,0,1-.788,1.973,2.455,2.455,0,0,0,.861,3.284,2.425,2.425,0,0,0,3.283-.861c2.984-5.766,2.581-13.29-.32-19.032a2.4,2.4,0,1,0-4.145,2.423Z"/><path class="c" d="M39.64,34.631C47.879,10.554,70.793.4,96.107,0c13.444.489,27.657,4.333,37.673,11.966,10.4,7.924,16.867,16.025,19.393,28.681,1.788,8.96,1.3,14.178.326,21.023L151.7,70a9.107,9.107,0,0,1,4.5-.566,7.662,7.662,0,0,1,5.424,3.137,8.342,8.342,0,0,1,1.116,3.734c.5,5.031.406,10.044-2.215,14.628a16.623,16.623,0,0,1-5.028,5.727,20.7,20.7,0,0,1-7.532,2.842l-.529.07c-2.982,11.652-14.672,25.668-35.031,31.3-9.691,2.892-24.787,3.275-35.444.567-18.91-5.2-31.156-19.775-33.4-31.882L42.84,99.5a20.7,20.7,0,0,1-7.532-2.842,16.623,16.623,0,0,1-5.028-5.727c-2.621-4.584-2.717-9.6-2.215-14.628a8.343,8.343,0,0,1,1.117-3.734,7.658,7.658,0,0,1,5.424-3.137A8.824,8.824,0,0,1,41,71.057l-.578-3.3a65.734,65.734,0,0,0-1.8-7.912,41.944,41.944,0,0,1-.172-21.235Q38.978,36.561,39.64,34.631Z"/><path class="e" d="M96.762,88.576a2.612,2.612,0,0,1-.26.128l.573-.242a1.729,1.729,0,0,1-.429.118l.638-.086a1.657,1.657,0,0,1-.428,0l.638.086c-.083-.012-.166-.028-.248-.044-.281-.055-.565-.086-.849-.122a2.467,2.467,0,0,0-2.4,2.4l.086.638a2.4,2.4,0,0,0,.617,1.059l.486.375a2.385,2.385,0,0,0,1.211.328l.014,0-.638-.086c.105.014.209.038.314.057.262.049.529.079.794.111.062.007.125.012.187.013a1.573,1.573,0,0,0,.2-.009c.244-.026.491-.056.732-.1.037-.006.073-.014.109-.023a2.122,2.122,0,0,0,.248-.083,6.919,6.919,0,0,0,.833-.371,2.312,2.312,0,0,0,1.146-2.391,1.784,1.784,0,0,0-.285-.892l-.375-.486a2.4,2.4,0,0,0-1.059-.617l-.638-.086a2.382,2.382,0,0,0-1.212.328Z"/><path class="e" d="M86.981,105.839c2.551,2.5,6.568,3.242,10,3.24s7.446-.742,10-3.24a2.4,2.4,0,0,0-3.394-3.394c-.1.094-.555.457-.2.2s-.253.163-.379.24c-.215.133-.437.254-.662.368-.152.076-.307.146-.461.216.292-.134.238-.093-.027,0a12.925,12.925,0,0,1-4.873.809c-.5,0-.99-.017-1.483-.055-.272-.021-.547-.044-.818-.081.311.042-.143-.029-.247-.048a13.6,13.6,0,0,1-2.237-.591c-.1-.036-.671-.3-.116-.035-.128-.061-.259-.117-.386-.18-.251-.123-.5-.257-.735-.4-.069-.042-.471-.377-.532-.359.148-.043.463.4.151.105-.065-.063-.134-.123-.2-.186a2.4,2.4,0,0,0-3.394,3.394Z"/><path class="f" d="M68.975,74.375c-.895,2.894-.333,9.545,5.127,10.1,7.219-.063,7.623-8.107,5.2-11.882C77.322,69.5,71.475,68.227,68.975,74.375Z"/><path class="g" d="M55.37,170.349a50.1,50.1,0,0,1,9.484,12.51c.535.974,1.051,1.968,1.488,2.991.119.277.281.7.4,1.038a5.433,5.433,0,0,0,.242.739c-.026,0,.051-1.457-.026-1.095,0,.014.345-.61.062-.19-.1.142-.174.3-.265.447-.282.455-.591.894-.9,1.33-1.841,2.589-3.556,4.693-5.731,7.322a87.194,87.194,0,0,1-5.858,6.647c-.157.154-.322.3-.478.454-.444.437.084-.039.056-.022-.048.029-.092.063-.143.088a1.564,1.564,0,0,1,.788-.248c.359-.028.387-.046.086-.054l-.215-.02c.261.039.239.034-.064-.013q-.4-.069-.786-.158a27.647,27.647,0,0,1-8.413-3.721c-2.63-1.638-5.043,2.513-2.423,4.145a33.4,33.4,0,0,0,8.844,4.026c1.7.457,3.6.988,5.107-.174A41.58,41.58,0,0,0,62.549,200c2.425-2.886,4.805-5.824,7.028-8.87a17.991,17.991,0,0,0,1.7-2.576c.942-1.91-.229-3.931-1.047-5.7a52.389,52.389,0,0,0-11.463-15.9c-2.255-2.108-5.657,1.279-3.4,3.394Z"/><path class="g" d="M150.274,197.033a37.8,37.8,0,0,1-7.592,4.736,13.876,13.876,0,0,1-2.3.767c-.542.137.161.1-.075.019-.44-.147,1.051.329.984.295-.466-.23.218.247.1.095-.617-.772-1.471-1.437-2.143-2.173-1.084-1.189-2.134-2.409-3.172-3.638q-1.756-2.079-3.458-4.206c-1.142-1.426-1.693-2.123-2.719-3.5-.656-.884-1.254-1.8-1.866-2.707-.182-.272-.195-.7.011.118-.175-.694-.365,1.714.028.8.421-.974.69-2.022,1.106-3a42.207,42.207,0,0,1,9.4-14.288c2.257-2.118-1.142-5.508-3.395-3.394a45.76,45.76,0,0,0-10,14.925c-.5,1.137-.982,2.287-1.4,3.46a4.377,4.377,0,0,0-.389,2.721,10.045,10.045,0,0,0,1.691,2.875c2.206,3.075,4.605,6.023,7.033,8.924a48.555,48.555,0,0,0,6.008,6.585c1.769,1.452,3.875.768,5.818-.032a42.484,42.484,0,0,0,9.721-5.986,2.412,2.412,0,0,0,0-3.394,2.461,2.461,0,0,0-3.394,0Z"/><path class="f" d="M123.419,74.375c.895,2.895.333,9.546-5.127,10.1-7.219-.063-7.623-8.107-5.2-11.882C115.071,69.5,120.918,68.227,123.419,74.375Z"/><path class="e" d="M89.508,39.793c-.2.751-.432,1.483-.684,2.218-.066.167-.039.106.081-.181-.033.077-.067.155-.1.232-.059.128-.119.255-.182.382-.151.3-.315.6-.491.888s-.362.572-.56.846c-.046.064-.358.434-.119.163s-.14.161-.187.216a13.469,13.469,0,0,1-1.373,1.382c-.127.111-.26.218-.39.327-.342.287.259-.18.016-.013s-.506.36-.769.527q-.431.273-.879.513a3.592,3.592,0,0,1-.914.444c.249-.041.345-.139.026-.016q-.237.092-.477.173c-.294.1-.591.19-.891.269q-.492.127-.992.215l-.167.028q-.4.06.134-.016a1.5,1.5,0,0,1-.506.048,2.4,2.4,0,0,0,0,4.8,15.824,15.824,0,0,0,9.075-3.8,16.114,16.114,0,0,0,4.98-8.374,2.4,2.4,0,1,0-4.628-1.276Z"/><path class="e" d="M105.5,41.831c0,.271,0,.541-.015.811-.009.162-.024.323-.038.485-.037.454.068-.381.015-.076a13.607,13.607,0,0,1-.379,1.654q-.118.389-.264.766c-.034.09-.256.474-.063.164s-.04.076-.079.156a12.353,12.353,0,0,1-.838,1.483c-.074.113-.15.225-.228.335-.046.065-.313.458-.1.149s-.064.075-.116.138c-.086.1-.175.206-.265.307a12.08,12.08,0,0,1-1.215,1.19c-.062.052-.407.373-.134.118s-.076.054-.146.1q-.328.235-.674.447-.379.233-.776.435c-.121.061-.243.118-.365.177-.434.211.463-.182-.024.012a2.462,2.462,0,0,0-1.676,2.953,2.426,2.426,0,0,0,2.952,1.676,14.7,14.7,0,0,0,6.824-5.484,14.137,14.137,0,0,0,2.406-8,2.4,2.4,0,1,0-4.8,0Z"/></svg>