<?xml version="1.0" standalone="no"?>
<!DOCTYPE svg PUBLIC "-//W3C//DTD SVG 20010904//EN"
 "http://www.w3.org/TR/2001/REC-SVG-20010904/DTD/svg10.dtd">
<svg version="1.0" xmlns="http://www.w3.org/2000/svg"
 width="900.000000pt" height="1280.000000pt" viewBox="0 0 900.000000 1280.000000"
 preserveAspectRatio="xMidYMid meet">
<metadata>
Created by potrace 1.15, written by Peter Selinger 2001-2017
</metadata>
<g transform="translate(0.000000,1280.000000) scale(0.100000,-0.100000)"
fill="#000000" stroke="none">
<path d="M4345 12793 c-264 -31 -425 -75 -630 -173 -344 -165 -641 -455 -819
-800 -340 -661 -245 -1448 243 -2017 146 -170 367 -338 576 -438 812 -390
1786 -125 2286 622 367 549 406 1245 103 1833 -280 543 -806 903 -1416 969
-91 10 -275 12 -343 4z"/>
<path d="M3188 8884 c-148 -26 -296 -96 -424 -199 -120 -95 -2576 -2565 -2635
-2648 -152 -216 -168 -460 -44 -673 69 -119 225 -234 366 -270 81 -21 215 -21
301 0 86 20 210 82 285 142 32 26 394 385 805 798 l747 751 0 -693 1 -692
1903 2 1902 3 3 690 2 689 803 -800 c770 -768 805 -801 882 -841 103 -53 186
-74 294 -74 174 1 334 71 451 197 201 217 223 508 57 751 -53 78 -2574 2607
-2672 2680 -131 99 -272 160 -431 188 -124 21 -2476 21 -2596 -1z"/>
<path d="M1949 4053 c-405 -406 -651 -661 -679 -702 -238 -355 -196 -891 100
-1263 36 -46 1466 -1540 1745 -1824 118 -120 226 -193 339 -231 68 -22 99 -27
191 -27 148 0 230 25 352 111 164 115 273 319 273 513 0 117 -46 256 -121 367
-17 27 -291 308 -608 626 l-576 578 528 526 529 526 -719 719 -718 718 -636
-637z"/>
<path d="M5672 3977 c-391 -393 -712 -718 -712 -723 0 -5 235 -244 522 -531
l523 -523 -566 -567 c-311 -313 -582 -591 -602 -619 -82 -115 -127 -249 -127
-381 0 -104 14 -170 55 -258 125 -271 409 -419 689 -360 85 18 213 80 288 139
75 60 1828 1883 1885 1961 145 198 220 412 230 660 6 161 -14 286 -66 415 -61
149 -89 180 -765 858 l-641 643 -713 -714z"/>
</g>
</svg>
